<?xml version="1.0" encoding="UTF-8" standalone="no"?>
<svg
   version="1.1"
   width="24"
   height="24"
   viewBox="0 0 24 24"
   id="svg4"
   sodipodi:docname="target-variant (1).svg"
   inkscape:version="1.1.1 (3bf5ae0d25, 2021-09-20)"
   xmlns:inkscape="http://www.inkscape.org/namespaces/inkscape"
   xmlns:sodipodi="http://sodipodi.sourceforge.net/DTD/sodipodi-0.dtd"
   xmlns="http://www.w3.org/2000/svg"
   xmlns:svg="http://www.w3.org/2000/svg">
  <defs
     id="defs8" />
  <sodipodi:namedview
     id="namedview6"
     pagecolor="#ffffff"
     bordercolor="#666666"
     borderopacity="1.0"
     inkscape:pageshadow="2"
     inkscape:pageopacity="0.0"
     inkscape:pagecheckerboard="0"
     showgrid="false"
     inkscape:snap-nodes="false"
     showguides="true"
     inkscape:guide-bbox="true"
     inkscape:snap-bbox="true"
     inkscape:zoom="11.313709"
     inkscape:cx="-15.954097"
     inkscape:cy="15.158602"
     inkscape:window-width="1920"
     inkscape:window-height="1009"
     inkscape:window-x="-8"
     inkscape:window-y="-8"
     inkscape:window-maximized="1"
     inkscape:current-layer="svg4"
     inkscape:snap-page="true" />
  <g
     id="g4579"
     transform="matrix(0.67476898,0.67955043,-0.67476898,0.67955043,12.00601,-4.277481)"
     inkscape:export-filename="C:\Users\David\Downloads\target-variant (1).png"
     inkscape:export-xdpi="1024"
     inkscape:export-ydpi="1024">
    <path
       d="M 20.08,4 C 3.8544999,4.0849894 12.582232,4 4,4 c -0.034765,8.808266 -0.037467,8.990084 0,16.08 16.269069,-0.0097 8.325402,0 16.08,0 M 18.07,18.07 C 5.9367078,18.08229 18.12443,18.10125 6,18.07 5.9881636,5.8052923 6,12.862472 6,6 18.153588,5.98965 6.060326,6 18.07,6 c 0.03427,12.131277 0,5.276058 0,12.07 m -5.02,-6.02 c 0,0.55 -0.45,1 -1,1 -0.55,0 -1.01,-0.45 -1.01,-1 0,-0.55 0.46,-1.01 1.01,-1.01 0.55,0 1,0.46 1,1.01 z"
       id="path2"
       sodipodi:nodetypes="cccccccccsssss" />
    <path
       style="fill:#d42aff;stroke:#d42aff;stroke-width:0.03125"
       d="m 18.089768,4.5897682 2.121321,-2.1213203 0.707106,0.7071068 0.707107,0.7071067 -2.12132,2.1213204 -2.121321,2.1213203 -0.707106,-0.7071068 -0.707107,-0.7071067 z"
       id="path742" />
    <path
       style="fill:#d42aff;stroke:#d42aff;stroke-width:0.03125"
       d="m 19.363357,17.980393 2.12132,2.121321 -0.707107,0.707106 -0.707106,0.707107 -2.121321,-2.12132 -2.12132,-2.121321 0.707107,-0.707106 0.707106,-0.707107 z"
       id="path742-9" />
    <path
       style="fill:#d42aff;stroke:#d42aff;stroke-width:0.03125"
       d="M 5.9883568,4.605393 8.1096771,6.726714 7.4025703,7.43382 6.6954636,8.140927 4.5741432,6.019607 2.4528229,3.898286 3.1599297,3.19118 3.8670364,2.484073 Z"
       id="path742-7" />
    <path
       style="fill:#d42aff;stroke:#d42aff;stroke-width:0.03125"
       d="m 4.605393,18.105393 2.121321,-2.12132 0.707106,0.707107 0.707107,0.707106 -2.12132,2.121321 -2.121321,2.12132 L 3.19118,20.93382 2.484073,20.226714 Z"
       id="path742-0" />
    <path
       style="fill:#aa00d4;stroke:#aa00d4;stroke-width:0.03125"
       d="M 4.005123,17.372384 C 3.9783846,15.731518 3.9784175,9.7563478 4.005178,7.3647082 L 4.0259233,5.5106665 5.0051491,6.4895222 5.984375,7.4683779 v 4.6097471 4.609747 l -0.979252,0.978882 -0.979252,0.978882 z"
       id="path3852" />
    <path
       style="fill:#aa00d4;stroke:#aa00d4;stroke-width:0.03125"
       d="m 6.4900345,19.088575 0.9900345,-0.990396 4.559323,-0.0077 4.559324,-0.0077 0.989521,0.989886 0.989521,0.989887 -6.538879,0.0082 L 5.5,20.078972 Z"
       id="path3891" />
    <path
       style="fill:#aa00d4;stroke:#aa00d4;stroke-width:0.03125"
       d="M 19.078715,17.65684 18.095301,16.673055 18.094526,12.06291 18.09375,7.4527644 19.085937,6.4609403 20.078125,5.4691162 v 6.5857548 c 0,3.622165 -0.0036,6.585754 -0.008,6.585754 -0.0044,0 -0.450534,-0.442703 -0.99141,-0.983785 z"
       id="path3930" />
    <path
       style="fill:#aa00d4;stroke:#aa00d4;stroke-width:0.03125"
       d="M 6.429684,5.0078125 5.4534901,4.03125 H 12.031245 18.609 L 17.632811,5.0078125 16.656622,5.984375 H 12.03125 7.4058779 Z"
       id="path3969" />
    <path
       style="fill:#aa00d4;stroke:#aa00d4;stroke-width:0.03125"
       d="m 11.866329,13.014018 c -0.456633,-0.09113 -0.800241,-0.50759 -0.800815,-0.970601 -2.11e-4,-0.169925 0.01764,-0.242925 0.100569,-0.411389 0.371881,-0.755396 1.388641,-0.757554 1.759746,-0.0037 0.239228,0.485942 0.03969,1.055753 -0.45194,1.29055 -0.217574,0.103913 -0.411533,0.134296 -0.60756,0.09517 z"
       id="path4008" />
    <path
       style="fill:#dd55ff;stroke:#dd55ff;stroke-width:0.03125"
       d="m 3.1873813,20.921756 -0.687086,-0.687619 2.1170103,-2.11701 2.1170103,-2.11701 0.6952547,0.695254 0.6952547,0.695255 -2.1092009,2.109375 c -1.1600604,1.160156 -2.116391,2.109374 -2.125179,2.109374 -0.00879,0 -0.3251668,-0.309428 -0.7030641,-0.687619 z"
       id="path4312" />
    <path
       style="fill:#dd55ff;stroke:#dd55ff;stroke-width:0.03125"
       d="m 17.953125,19.375001 -2.1092,-2.109375 0.695254,-0.695255 0.695255,-0.695254 2.11701,2.11701 2.117011,2.11701 -0.687086,0.687619 c -0.377897,0.378191 -0.694277,0.687619 -0.703064,0.687619 -0.0088,0 -0.965119,-0.949218 -2.12518,-2.109374 z"
       id="path4351" />
    <path
       style="fill:#dd55ff;stroke:#dd55ff;stroke-width:0.03125"
       d="M 16.679599,7.4139794 15.984544,6.7184091 18.10182,4.6013045 20.219096,2.4842 20.914151,3.1797705 21.609206,3.8753409 19.49193,5.9924453 17.374654,8.10955 Z"
       id="path4390" />
    <path
       style="fill:#dd55ff;stroke:#dd55ff;stroke-width:0.03125"
       d="M 4.5781255,6.0000006 2.4689246,3.890626 3.1641793,3.1953713 3.8594339,2.5001166 5.9764444,4.617127 8.0934547,6.7341375 7.4063687,7.4217562 C 7.0284716,7.7999466 6.7120925,8.109375 6.7033047,8.109375 c -0.00879,0 -0.9651188,-0.9492184 -2.1251792,-2.1093744 z"
       id="path4429" />
  </g>
</svg>
